# File generated by ImageToStl.com - Free Image and 3D model conversion tools

o obj1
v 152.40000916 152.40000916 69.28203583
v 152.40000916 152.40000916 74.28203583
v 152.40000916 0 69.28203583
v 152.40000916 0 74.28203583
v 0 152.40000916 69.28203583
v 0 0 69.28203583
v 0 152.40000916 74.28203583
v 0 0 74.28203583
v 111.89256287 0 0
v 120.50743866 0 0
v 71.89256287 0 69.28203583
v 80.50743866 0 69.28203583
v 120.50743866 152.40000916 0
v 111.89256287 152.40000916 0
v 80.50743866 152.40000916 69.28203583
v 71.89256287 152.40000916 69.28203583
vn 1 0 -0
vn -0 -0 -1
vn -1 -0 -0
vn 0 0 1
vn -0 1 0
vn 0 -1 0
vn 0.86603 -0 0.5
vn 0 0 -1
vn -0.86603 0 -0.5
vn -0 0 1
f 1//1 2//1 3//1
f 3//1 2//1 4//1
f 5//2 1//2 6//2
f 6//2 1//2 3//2
f 7//3 5//3 8//3
f 8//3 5//3 6//3
f 2//4 7//4 4//4
f 4//4 7//4 8//4
f 5//5 7//5 1//5
f 1//5 7//5 2//5
f 8//6 6//6 4//6
f 4//6 6//6 3//6
f 9//6 10//6 11//6
f 11//6 10//6 12//6
f 13//5 14//5 15//5
f 15//5 14//5 16//5
f 10//7 13//7 12//7
f 12//7 13//7 15//7
f 9//8 14//8 10//8
f 10//8 14//8 13//8
f 11//9 16//9 9//9
f 9//9 16//9 14//9
f 12//10 15//10 11//10
f 11//10 15//10 16//10
# Vertices: 16, normals: 10, texture coordinates: 0, faces: 24

