o obj1
v 0.12368567347828763 29.887261885951126 -28.1200334070703
v 0.1229820489738842 29.87924760961151 -30.12001722607667
v -29.876015268877506 30.020839531035794 -28.11001432773731
v -29.876015268877506 30.020839531035794 -28.11001432773731
v 0.1229820489738842 29.87924760961151 -30.12001722607667
v -29.87671889338191 30.01282525469618 -30.10999814674368
v -0.005399528646357342 0.8877823089427178 -28.003782131266437
v 0.12368567347828763 29.887261885951126 -28.1200334070703
v -29.876015268877506 30.020839531035794 -28.11001432773731
v -1.00983999962085 -0.10774728403526988 -27.999439497036878
v -0.005399528646357342 0.8877823089427178 -28.003782131266437
v -29.009561654005584 0.01692518816055355 -27.99008835606731
v -29.009561654005584 0.01692518816055355 -27.99008835606731
v -0.005399528646357342 0.8877823089427178 -28.003782131266437
v -29.876015268877506 30.020839531035794 -28.11001432773731
v -29.009561654005584 0.01692518816055355 -27.99008835606731
v -29.876015268877506 30.020839531035794 -28.11001432773731
v -30.00510047100215 1.021359954027385 -27.99376305193345
v -1.00983999962085 -0.10774728403526988 -27.999439497036878
v -29.009561654005584 0.01692518816055355 -27.99008835606731
v -1.0105436241252534 -0.11576156037488593 -29.99942331604325
v -1.0105436241252534 -0.11576156037488593 -29.99942331604325
v -29.009561654005584 0.01692518816055355 -27.99008835606731
v -29.010265278509987 0.008910911820937506 -29.99007217507368
v -29.87671889338191 30.01282525469618 -30.10999814674368
v 0.1229820489738842 29.87924760961151 -30.12001722607667
v -0.006103153150760763 0.8797680326031018 -30.003765950272808
v -0.006103153150760763 0.8797680326031018 -30.003765950272808
v -1.0105436241252534 -0.11576156037488593 -29.99942331604325
v -29.87671889338191 30.01282525469618 -30.10999814674368
v -29.87671889338191 30.01282525469618 -30.10999814674368
v -1.0105436241252534 -0.11576156037488593 -29.99942331604325
v -29.010265278509987 0.008910911820937506 -29.99007217507368
v -29.87671889338191 30.01282525469618 -30.10999814674368
v -29.010265278509987 0.008910911820937506 -29.99007217507368
v -30.005804095506555 1.0133456776877687 -29.99374687093982
v -0.006103153150760763 0.8797680326031018 -30.003765950272808
v 0.1229820489738842 29.87924760961151 -30.12001722607667
v -0.005399528646357342 0.8877823089427178 -28.003782131266437
v -0.005399528646357342 0.8877823089427178 -28.003782131266437
v 0.1229820489738842 29.87924760961151 -30.12001722607667
v 0.12368567347828763 29.887261885951126 -28.1200334070703
v -30.00510047100215 1.021359954027385 -27.99376305193345
v -29.876015268877506 30.020839531035794 -28.11001432773731
v -30.005804095506555 1.0133456776877687 -29.99374687093982
v -30.005804095506555 1.0133456776877687 -29.99374687093982
v -29.876015268877506 30.020839531035794 -28.11001432773731
v -29.87671889338191 30.01282525469618 -30.10999814674368
v -0.005399528646357342 0.8877823089427178 -28.003782131266437
v -1.00983999962085 -0.10774728403526988 -27.999439497036878
v -0.006103153150760763 0.8797680326031018 -30.003765950272808
v -0.006103153150760763 0.8797680326031018 -30.003765950272808
v -1.00983999962085 -0.10774728403526988 -27.999439497036878
v -1.0105436241252534 -0.11576156037488593 -29.99942331604325
v -29.009561654005584 0.01692518816055355 -27.99008835606731
v -30.00510047100215 1.021359954027385 -27.99376305193345
v -29.010265278509987 0.008910911820937506 -29.99007217507368
v -29.010265278509987 0.008910911820937506 -29.99007217507368
v -30.00510047100215 1.021359954027385 -27.99376305193345
v -30.005804095506555 1.0133456776877687 -29.99374687093982
v -0.8575504122499374 32.00387845640549 -0.12794330132752005
v 0.14208703201512357 31.99541873303864 -1.1282692990913508
v -28.85727206663467 32.128550928601314 -0.11859216035795223
v -28.85727206663467 32.128550928601314 -0.11859216035795223
v 0.14208703201512357 31.99541873303864 -1.1282692990913508
v 0.13188447674321324 31.879211726591894 -30.12803455547541
v -28.85727206663467 32.128550928601314 -0.11859216035795223
v 0.13188447674321324 31.879211726591894 -30.12803455547541
v -29.85761391034067 32.128996378123304 -1.1182502197583633
v -29.85761391034067 32.128996378123304 -1.1182502197583633
v 0.13188447674321324 31.879211726591894 -30.12803455547541
v -29.86781646561258 32.01278937167656 -30.11801547614242
v -29.87671889338191 30.01282525469618 -30.10999814674368
v -29.86781646561258 32.01278937167656 -30.11801547614242
v 0.1229820489738842 29.87924760961151 -30.12001722607667
v 0.1229820489738842 29.87924760961151 -30.12001722607667
v -29.86781646561258 32.01278937167656 -30.11801547614242
v 0.13188447674321324 31.879211726591894 -30.12803455547541
v -29.86651633811 30.129032261142925 -1.1102328903596232
v -29.87671889338191 30.01282525469618 -30.10999814674368
v -28.866174494404 30.12858681162093 -0.11057483095921222
v -28.866174494404 30.12858681162093 -0.11057483095921222
v -29.87671889338191 30.01282525469618 -30.10999814674368
v 0.1229820489738842 29.87924760961151 -30.12001722607667
v -28.866174494404 30.12858681162093 -0.11057483095921222
v 0.1229820489738842 29.87924760961151 -30.12001722607667
v -0.8664528400192665 30.00391433942511 -0.11992597192878005
v -0.8664528400192665 30.00391433942511 -0.11992597192878005
v 0.1229820489738842 29.87924760961151 -30.12001722607667
v 0.13318460424579454 29.995454616058257 -1.1202519696926108
v -28.866174494404 30.12858681162093 -0.11057483095921222
v -0.8664528400192665 30.00391433942511 -0.11992597192878005
v -28.85727206663467 32.128550928601314 -0.11859216035795223
v -28.85727206663467 32.128550928601314 -0.11859216035795223
v -0.8664528400192665 30.00391433942511 -0.11992597192878005
v -0.8575504122499374 32.00387845640549 -0.12794330132752005
v -29.85761391034067 32.128996378123304 -1.1182502197583633
v -29.86781646561258 32.01278937167656 -30.11801547614242
v -29.86651633811 30.129032261142925 -1.1102328903596232
v -29.86651633811 30.129032261142925 -1.1102328903596232
v -29.86781646561258 32.01278937167656 -30.11801547614242
v -29.87671889338191 30.01282525469618 -30.10999814674368
v 0.13318460424579454 29.995454616058257 -1.1202519696926108
v 0.1229820489738842 29.87924760961151 -30.12001722607667
v 0.14208703201512357 31.99541873303864 -1.1282692990913508
v 0.14208703201512357 31.99541873303864 -1.1282692990913508
v 0.1229820489738842 29.87924760961151 -30.12001722607667
v 0.13188447674321324 31.879211726591894 -30.12803455547541
v -28.85727206663467 32.128550928601314 -0.11859216035795223
v -29.85761391034067 32.128996378123304 -1.1182502197583633
v -28.866174494404 30.12858681162093 -0.11057483095921222
v -28.866174494404 30.12858681162093 -0.11057483095921222
v -29.85761391034067 32.128996378123304 -1.1182502197583633
v -29.86651633811 30.129032261142925 -1.1102328903596232
v 0.14208703201512357 31.99541873303864 -1.1282692990913508
v -0.8575504122499374 32.00387845640549 -0.12794330132752005
v 0.13318460424579454 29.995454616058257 -1.1202519696926108
v 0.13318460424579454 29.995454616058257 -1.1202519696926108
v -0.8575504122499374 32.00387845640549 -0.12794330132752005
v -0.8664528400192665 30.00391433942511 -0.11992597192878005
vn 0.004451213884664449 0.9999820584901917 -0.0040086646993700206
vn 0.004451213884664449 0.9999820584901917 -0.0040086646993700206
vn 0.004451213884664449 0.9999820584901917 -0.0040086646993700206
vn 0.004451213884664449 0.9999820584901917 -0.0040086646993700206
vn 0.004451213884664449 0.9999820584901917 -0.0040086646993700206
vn 0.004451213884664449 0.9999820584901917 -0.0040086646993700206
vn 0.00035181225220177196 0.004007138169808003 0.9999919095031857
vn 0.00035181225220177196 0.004007138169808003 0.9999919095031857
vn 0.00035181225220177196 0.004007138169808003 0.9999919095031857
vn 0.00035181225220177196 0.004007138169808003 0.9999919095031857
vn 0.00035181225220177196 0.004007138169808003 0.9999919095031857
vn 0.00035181225220177196 0.004007138169808003 0.9999919095031857
vn 0.00035181225220177196 0.004007138169808003 0.9999919095031857
vn 0.00035181225220177196 0.004007138169808003 0.9999919095031857
vn 0.00035181225220177196 0.004007138169808003 0.9999919095031857
vn 0.00035181225220177196 0.004007138169808003 0.9999919095031857
vn 0.00035181225220177196 0.004007138169808003 0.9999919095031857
vn 0.00035181225220177196 0.004007138169808003 0.9999919095031857
vn -0.004451213884664449 -0.9999820584901917 0.0040086646993700206
vn -0.004451213884664449 -0.9999820584901917 0.0040086646993700206
vn -0.004451213884664449 -0.9999820584901917 0.0040086646993700206
vn -0.004451213884664449 -0.9999820584901917 0.0040086646993700206
vn -0.004451213884664449 -0.9999820584901917 0.0040086646993700206
vn -0.004451213884664449 -0.9999820584901917 0.0040086646993700206
vn -0.00035181225220177196 -0.004007138169808003 -0.9999919095031857
vn -0.00035181225220177196 -0.004007138169808003 -0.9999919095031857
vn -0.00035181225220177196 -0.004007138169808003 -0.9999919095031857
vn -0.00035181225220177196 -0.004007138169808003 -0.9999919095031857
vn -0.00035181225220177196 -0.004007138169808003 -0.9999919095031857
vn -0.00035181225220177196 -0.004007138169808003 -0.9999919095031857
vn -0.00035181225220177196 -0.004007138169808003 -0.9999919095031857
vn -0.00035181225220177196 -0.004007138169808003 -0.9999919095031857
vn -0.00035181225220177196 -0.004007138169808003 -0.9999919095031857
vn -0.00035181225220177196 -0.004007138169808003 -0.9999919095031857
vn -0.00035181225220177196 -0.004007138169808003 -0.9999919095031857
vn -0.00035181225220177196 -0.004007138169808003 -0.9999919095031857
vn 0.9999900314118597 -0.004452588169488969 -0.00033396931109951864
vn 0.9999900314118597 -0.004452588169488969 -0.00033396931109951864
vn 0.9999900314118597 -0.004452588169488969 -0.00033396931109951864
vn 0.9999900314118597 -0.004452588169488969 -0.00033396931109951864
vn 0.9999900314118597 -0.004452588169488969 -0.00033396931109951864
vn 0.9999900314118597 -0.004452588169488969 -0.00033396931109951864
vn -0.9999900314118597 0.004452588169488969 0.00033396931109951864
vn -0.9999900314118597 0.004452588169488969 0.00033396931109951864
vn -0.9999900314118597 0.004452588169488969 0.00033396931109951864
vn -0.9999900314118597 0.004452588169488969 0.00033396931109951864
vn -0.9999900314118597 0.004452588169488969 0.00033396931109951864
vn -0.9999900314118597 0.004452588169488969 0.00033396931109951864
vn 0.7039522488079167 -0.7102425499117737 0.0025984020278410048
vn 0.7039522488079167 -0.7102425499117737 0.0025984020278410048
vn 0.7039522488079167 -0.7102425499117737 0.0025984020278410048
vn 0.7039522488079167 -0.7102425499117737 0.0025984020278410048
vn 0.7039522488079167 -0.7102425499117737 0.0025984020278410048
vn 0.7039522488079167 -0.7102425499117737 0.0025984020278410048
vn -0.7102472158526325 -0.7039456393348206 0.003070705957014343
vn -0.7102472158526325 -0.7039456393348206 0.003070705957014343
vn -0.7102472158526325 -0.7039456393348206 0.003070705957014343
vn -0.7102472158526325 -0.7039456393348206 0.003070705957014343
vn -0.7102472158526325 -0.7039456393348206 0.003070705957014343
vn -0.7102472158526325 -0.7039456393348206 0.003070705957014343
vn 0.004451213884664449 0.9999820584901917 -0.0040086646993700206
vn 0.004451213884664449 0.9999820584901917 -0.0040086646993700206
vn 0.004451213884664449 0.9999820584901917 -0.0040086646993700206
vn 0.004451213884664449 0.9999820584901917 -0.0040086646993700206
vn 0.004451213884664449 0.9999820584901917 -0.0040086646993700206
vn 0.004451213884664449 0.9999820584901917 -0.0040086646993700206
vn 0.004451213884664449 0.9999820584901917 -0.0040086646993700206
vn 0.004451213884664449 0.9999820584901917 -0.0040086646993700206
vn 0.004451213884664449 0.9999820584901917 -0.0040086646993700206
vn 0.004451213884664449 0.9999820584901917 -0.0040086646993700206
vn 0.004451213884664449 0.9999820584901917 -0.0040086646993700206
vn 0.004451213884664449 0.9999820584901917 -0.0040086646993700206
vn -0.00035181225220177196 -0.004007138169808003 -0.9999919095031857
vn -0.00035181225220177196 -0.004007138169808003 -0.9999919095031857
vn -0.00035181225220177196 -0.004007138169808003 -0.9999919095031857
vn -0.00035181225220177196 -0.004007138169808003 -0.9999919095031857
vn -0.00035181225220177196 -0.004007138169808003 -0.9999919095031857
vn -0.00035181225220177196 -0.004007138169808003 -0.9999919095031857
vn -0.004451213884664449 -0.9999820584901917 0.0040086646993700206
vn -0.004451213884664449 -0.9999820584901917 0.0040086646993700206
vn -0.004451213884664449 -0.9999820584901917 0.0040086646993700206
vn -0.004451213884664449 -0.9999820584901917 0.0040086646993700206
vn -0.004451213884664449 -0.9999820584901917 0.0040086646993700206
vn -0.004451213884664449 -0.9999820584901917 0.0040086646993700206
vn -0.004451213884664449 -0.9999820584901917 0.0040086646993700206
vn -0.004451213884664449 -0.9999820584901917 0.0040086646993700206
vn -0.004451213884664449 -0.9999820584901917 0.0040086646993700206
vn -0.004451213884664449 -0.9999820584901917 0.0040086646993700206
vn -0.004451213884664449 -0.9999820584901917 0.0040086646993700206
vn -0.004451213884664449 -0.9999820584901917 0.0040086646993700206
vn 0.00035181225220177196 0.004007138169808003 0.9999919095031857
vn 0.00035181225220177196 0.004007138169808003 0.9999919095031857
vn 0.00035181225220177196 0.004007138169808003 0.9999919095031857
vn 0.00035181225220177196 0.004007138169808003 0.9999919095031857
vn 0.00035181225220177196 0.004007138169808003 0.9999919095031857
vn 0.00035181225220177196 0.004007138169808003 0.9999919095031857
vn -0.9999900314118597 0.004452588169488969 0.00033396931109951864
vn -0.9999900314118597 0.004452588169488969 0.00033396931109951864
vn -0.9999900314118597 0.004452588169488969 0.00033396931109951864
vn -0.9999900314118597 0.004452588169488969 0.00033396931109951864
vn -0.9999900314118597 0.004452588169488969 0.00033396931109951864
vn -0.9999900314118597 0.004452588169488969 0.00033396931109951864
vn 0.9999900314118597 -0.004452588169488969 -0.00033396931109951864
vn 0.9999900314118597 -0.004452588169488969 -0.00033396931109951864
vn 0.9999900314118597 -0.004452588169488969 -0.00033396931109951864
vn 0.9999900314118597 -0.004452588169488969 -0.00033396931109951864
vn 0.9999900314118597 -0.004452588169488969 -0.00033396931109951864
vn 0.9999900314118597 -0.004452588169488969 -0.00033396931109951864
vn -0.7068509635010383 0.005981929861499337 0.7073372123059736
vn -0.7068509635010383 0.005981929861499337 0.7073372123059736
vn -0.7068509635010383 0.005981929861499337 0.7073372123059736
vn -0.7068509635010383 0.005981929861499337 0.7073372123059736
vn -0.7068509635010383 0.005981929861499337 0.7073372123059736
vn -0.7068509635010383 0.005981929861499337 0.7073372123059736
vn 0.707348501159511 -0.0003149807154539576 0.7068649083768
vn 0.707348501159511 -0.0003149807154539576 0.7068649083768
vn 0.707348501159511 -0.0003149807154539576 0.7068649083768
vn 0.707348501159511 -0.0003149807154539576 0.7068649083768
vn 0.707348501159511 -0.0003149807154539576 0.7068649083768
vn 0.707348501159511 -0.0003149807154539576 0.7068649083768
f 1//1 2//2 3//3
f 4//4 5//5 6//6
f 7//7 8//8 9//9
f 10//10 11//11 12//12
f 13//13 14//14 15//15
f 16//16 17//17 18//18
f 19//19 20//20 21//21
f 22//22 23//23 24//24
f 25//25 26//26 27//27
f 28//28 29//29 30//30
f 31//31 32//32 33//33
f 34//34 35//35 36//36
f 37//37 38//38 39//39
f 40//40 41//41 42//42
f 43//43 44//44 45//45
f 46//46 47//47 48//48
f 49//49 50//50 51//51
f 52//52 53//53 54//54
f 55//55 56//56 57//57
f 58//58 59//59 60//60
f 61//61 62//62 63//63
f 64//64 65//65 66//66
f 67//67 68//68 69//69
f 70//70 71//71 72//72
f 73//73 74//74 75//75
f 76//76 77//77 78//78
f 79//79 80//80 81//81
f 82//82 83//83 84//84
f 85//85 86//86 87//87
f 88//88 89//89 90//90
f 91//91 92//92 93//93
f 94//94 95//95 96//96
f 97//97 98//98 99//99
f 100//100 101//101 102//102
f 103//103 104//104 105//105
f 106//106 107//107 108//108
f 109//109 110//110 111//111
f 112//112 113//113 114//114
f 115//115 116//116 117//117
f 118//118 119//119 120//120
